# xmcd
#
# Track frame offsets:
#  150
#  18419
#  37732
#  49915
#  65895
#  85246
#  108946
#  125066
#  142355
#  159608
#  183329
#  196352
#  212535
#  251330
#  268398
#
# Disc length: 3698 seconds
#
# Revision: 2
# Processed by: cddbd v1.5.1PL0 Copyright (c) Steve Scherf et al.
# Submitted via: Collectorz.com_Music_Collector 6.9
#
DISCID=e10e700f
DTITLE=Kenny Traylor - Tribute
DYEAR=2003
DGENRE=Blues -  Blues Electric -  Blues Texas Style
TTITLE0=Tall Drink
TTITLE1=My Kinda' Woman
TTITLE2=Highway Angel
TTITLE3=Same Old News
TTITLE4=Love Don't Last
TTITLE5=Travelin' Blues
TTITLE6=Shake Your Moneymaker
TTITLE7=You Took Me In
TTITLE8=Weight On It
TTITLE9=Steal Away
TTITLE10=Once Or Twice
TTITLE11=T.V. Mama
TTITLE12=The Letter
TTITLE13=She Done Moved
TTITLE14=With Nobody Else
EXTD=
EXTT0=
EXTT1=
EXTT2=
EXTT3=
EXTT4=
EXTT5=
EXTT6=
EXTT7=
EXTT8=
EXTT9=
EXTT10=
EXTT11=
EXTT12=
EXTT13=
EXTT14=
PLAYORDER=
